<?xml version="1.0" ?><svg xmlns="http://www.w3.org/2000/svg" id="Layer_1" data-name="Layer 1" viewBox="0 0 1262.97 1262.97">
  <defs>
    <style>
      .cls-1 {
        fill: none;
        stroke: #1a1a1a;
        stroke-miterlimit: 22.93;
        stroke-width: 3.08px;
      }

      .cls-2, .cls-3 {
        fill: #ccc;
      }

      .cls-4 {
        fill: #1a1a1a;
      }

      .cls-3 {
        fill-rule: evenodd;
      }
    
                  .c8800FF {
                    fill: #8800FF;
                  }
                
                  .cFF00FF {
                    fill: #FF00FF;
                  }
                
                  .cFF00FF {
                    fill: #FF00FF;
                  }
                
                  .cFF00FF {
                    fill: #FF00FF;
                  }
                
                  .cFF00FF {
                    fill: #FF00FF;
                  }
                
                  .cFF00FF {
                    fill: #FF00FF;
                  }
                
                  .cFF00FF {
                    fill: #FF00FF;
                  }
                
                  .c8800FF {
                    fill: #8800FF;
                  }
                
                  .c8800FF {
                    fill: #8800FF;
                  }
                
                  .cFF00FF {
                    fill: #FF00FF;
                  }
                
                  .cFF00FF {
                    fill: #FF00FF;
                  }
                
                  .cFF00FF {
                    fill: #FF00FF;
                  }
                
                  .cFF00FF {
                    fill: #FF00FF;
                  }
                
                  .cFF00FF {
                    fill: #FF00FF;
                  }
                
                  .cFF00FF {
                    fill: #FF00FF;
                  }
                
                  .c8800FF {
                    fill: #8800FF;
                  }
                
                  .c8800FF {
                    fill: #8800FF;
                  }
                
                  .cFF00FF {
                    fill: #FF00FF;
                  }
                
                  .cFF00FF {
                    fill: #FF00FF;
                  }
                
                  .cFF00FF {
                    fill: #FF00FF;
                  }
                
                  .cFF00FF {
                    fill: #FF00FF;
                  }
                
                  .cFF00FF {
                    fill: #FF00FF;
                  }
                
                  .cFF00FF {
                    fill: #FF00FF;
                  }
                
                  .c8800FF {
                    fill: #8800FF;
                  }
                
                  .c8800FF {
                    fill: #8800FF;
                  }
                
                  .cFF00FF {
                    fill: #FF00FF;
                  }
                
                  .cFF00FF {
                    fill: #FF00FF;
                  }
                
                  .cFF00FF {
                    fill: #FF00FF;
                  }
                
                  .cFF00FF {
                    fill: #FF00FF;
                  }
                
                  .cFF00FF {
                    fill: #FF00FF;
                  }
                
                  .cFF00FF {
                    fill: #FF00FF;
                  }
                
                  .c8800FF {
                    fill: #8800FF;
                  }
                
                  .c8800FF {
                    fill: #8800FF;
                  }
                
                  .cFF00FF {
                    fill: #FF00FF;
                  }
                
                  .cFF00FF {
                    fill: #FF00FF;
                  }
                
                  .cFF00FF {
                    fill: #FF00FF;
                  }
                
                  .cFF00FF {
                    fill: #FF00FF;
                  }
                
                  .cFF00FF {
                    fill: #FF00FF;
                  }
                
                  .cFF00FF {
                    fill: #FF00FF;
                  }
                
                  .c8800FF {
                    fill: #8800FF;
                  }
                
                  .c8800FF {
                    fill: #8800FF;
                  }
                
                  .cFF00FF {
                    fill: #FF00FF;
                  }
                
                  .cFF00FF {
                    fill: #FF00FF;
                  }
                
                  .cFF00FF {
                    fill: #FF00FF;
                  }
                
                  .cFF00FF {
                    fill: #FF00FF;
                  }
                
                  .cFF00FF {
                    fill: #FF00FF;
                  }
                
                  .cFF00FF {
                    fill: #FF00FF;
                  }
                
                  .c8800FF {
                    fill: #8800FF;
                  }
                
                  .c8800FF {
                    fill: #8800FF;
                  }
                
                  .cFF00FF {
                    fill: #FF00FF;
                  }
                
                  .cFF00FF {
                    fill: #FF00FF;
                  }
                
                  .cFF00FF {
                    fill: #FF00FF;
                  }
                
                  .cFF00FF {
                    fill: #FF00FF;
                  }
                
                  .cFF00FF {
                    fill: #FF00FF;
                  }
                
                  .cFF00FF {
                    fill: #FF00FF;
                  }
                
                  .c8800FF {
                    fill: #8800FF;
                  }
                
                  .c8800FF {
                    fill: #8800FF;
                  }
                
                  .cFF00FF {
                    fill: #FF00FF;
                  }
                
                  .cFF00FF {
                    fill: #FF00FF;
                  }
                
                  .cFF00FF {
                    fill: #FF00FF;
                  }
                
                  .cFF00FF {
                    fill: #FF00FF;
                  }
                
                  .cFF00FF {
                    fill: #FF00FF;
                  }
                
                  .cFF00FF {
                    fill: #FF00FF;
                  }
                
                  .c8800FF {
                    fill: #8800FF;
                  }
                </style>
  </defs>
  <g>
    <rect width="1262.97" height="1262.97" rx="30.58" ry="30.58"/>
    <rect id="FN" class="cls-1" x="611.46" y="611.46" width="40.05" height="40.05" rx="3.08" ry="3.08" transform="translate(-261.57 631.49) rotate(-45)"/>
    <rect class="cls-4" x="609.92" y="20.82" width="43.13" height="6.16" rx="3.08" ry="3.08"/>
  </g>
  <g>
    <path class="cFF00FF" d="M763.41,641.52h-95.08c-.82,0-1.6,.33-2.18,.9l-23.83,23.83c-.58,.58-.9,1.36-.9,2.18v95.08c0,3.39,2.77,6.16,6.16,6.16h115.82c3.39,0,6.16-2.77,6.16-6.16v-115.82c0-3.39-2.77-6.16-6.16-6.16h.01Z"/>
    <path class="cFF00FF" d="M499.56,641.52h95.08c.82,0,1.6,.33,2.18,.9l23.83,23.83c.58,.58,.9,1.36,.9,2.18v95.08c0,3.39-2.77,6.16-6.16,6.16h-115.82c-3.39,0-6.16-2.77-6.16-6.16v-115.82c0-3.39,2.77-6.16,6.16-6.16h-.01Z"/>
    <path class="cFF00FF" d="M763.41,621.45h-95.08c-.82,0-1.6-.32-2.18-.9l-23.83-23.83c-.58-.58-.9-1.36-.9-2.18v-95.08c0-3.39,2.77-6.16,6.16-6.16h115.82c3.39,0,6.16,2.77,6.16,6.16v115.82c0,3.39-2.77,6.16-6.16,6.16h.01Z"/>
    <path class="cFF00FF" d="M499.56,621.45h95.08c.82,0,1.6-.32,2.18-.9l23.83-23.83c.58-.58,.9-1.36,.9-2.18v-95.08c0-3.39-2.77-6.16-6.16-6.16h-115.82c-3.39,0-6.16,2.77-6.16,6.16v115.82c0,3.39,2.77,6.16,6.16,6.16h-.01Z"/>
    <path id="Button1" class="c8800FF" d="M55.46,48.67h115.82c3.4,0,6.16,2.76,6.16,6.16v115.82c0,3.4-2.76,6.16-6.16,6.16H55.46c-3.4,0-6.16-2.76-6.16-6.16V54.83c0-3.4,2.76-6.16,6.16-6.16Z"/>
    <path id="Button2" class="cFF00FF" d="M203.49,48.67h115.82c3.4,0,6.16,2.76,6.16,6.16v115.82c0,3.4-2.76,6.16-6.16,6.16h-115.82c-3.4,0-6.16-2.76-6.16-6.16V54.83c0-3.4,2.76-6.16,6.16-6.16h0Z"/>
    <path class="cFF00FF" d="M203.49,196.88h115.82c3.4,0,6.16,2.76,6.16,6.16v115.82c0,3.4-2.76,6.16-6.16,6.16h-115.82c-3.4,0-6.16-2.76-6.16-6.16v-115.82c0-3.4,2.76-6.16,6.16-6.16h0Z"/>
    <path class="cFF00FF" d="M351.52,196.88h115.82c3.4,0,6.16,2.76,6.16,6.16v115.82c0,3.4-2.76,6.16-6.16,6.16h-115.82c-3.4,0-6.16-2.76-6.16-6.16v-115.82c0-3.4,2.76-6.16,6.16-6.16Z"/>
    <path class="cFF00FF" d="M499.56,196.88h115.82c3.4,0,6.16,2.76,6.16,6.16v115.82c0,3.4-2.76,6.16-6.16,6.16h-115.82c-3.4,0-6.16-2.76-6.16-6.16v-115.82c0-3.4,2.76-6.16,6.16-6.16Z"/>
    <path class="cFF00FF" d="M647.59,196.88h115.82c3.4,0,6.16,2.76,6.16,6.16v115.82c0,3.4-2.76,6.16-6.16,6.16h-115.82c-3.4,0-6.16-2.76-6.16-6.16v-115.82c0-3.4,2.76-6.16,6.16-6.16Z"/>
    <path class="cFF00FF" d="M795.62,196.88h115.82c3.4,0,6.16,2.76,6.16,6.16v115.82c0,3.4-2.76,6.16-6.16,6.16h-115.82c-3.4,0-6.16-2.76-6.16-6.16v-115.82c0-3.4,2.76-6.16,6.16-6.16Z"/>
    <path class="cFF00FF" d="M943.65,196.88h115.82c3.4,0,6.16,2.76,6.16,6.16v115.82c0,3.4-2.76,6.16-6.16,6.16h-115.82c-3.4,0-6.16-2.76-6.16-6.16v-115.82c0-3.4,2.76-6.16,6.16-6.16Z"/>
    <path class="c8800FF" d="M1091.69,196.88h115.82c3.4,0,6.16,2.76,6.16,6.16v115.82c0,3.4-2.76,6.16-6.16,6.16h-115.82c-3.4,0-6.16-2.76-6.16-6.16v-115.82c0-3.4,2.76-6.16,6.16-6.16Z"/>
    <path class="cFF00FF" d="M203.49,345.09h115.82c3.4,0,6.16,2.76,6.16,6.16v115.82c0,3.4-2.76,6.16-6.16,6.16h-115.82c-3.4,0-6.16-2.76-6.16-6.16v-115.82c0-3.4,2.76-6.16,6.16-6.16h0Z"/>
    <path class="cFF00FF" d="M351.52,345.09h115.82c3.4,0,6.16,2.76,6.16,6.16v115.82c0,3.4-2.76,6.16-6.16,6.16h-115.82c-3.4,0-6.16-2.76-6.16-6.16v-115.82c0-3.4,2.76-6.16,6.16-6.16Z"/>
    <path class="cFF00FF" d="M499.56,345.09h115.82c3.4,0,6.16,2.76,6.16,6.16v115.82c0,3.4-2.76,6.16-6.16,6.16h-115.82c-3.4,0-6.16-2.76-6.16-6.16v-115.82c0-3.4,2.76-6.16,6.16-6.16Z"/>
    <path class="cFF00FF" d="M647.59,345.09h115.82c3.4,0,6.16,2.76,6.16,6.16v115.82c0,3.4-2.76,6.16-6.16,6.16h-115.82c-3.4,0-6.16-2.76-6.16-6.16v-115.82c0-3.4,2.76-6.16,6.16-6.16Z"/>
    <path class="cFF00FF" d="M795.62,345.09h115.82c3.4,0,6.16,2.76,6.16,6.16v115.82c0,3.4-2.76,6.16-6.16,6.16h-115.82c-3.4,0-6.16-2.76-6.16-6.16v-115.82c0-3.4,2.76-6.16,6.16-6.16Z"/>
    <path class="cFF00FF" d="M943.65,345.09h115.82c3.4,0,6.16,2.76,6.16,6.16v115.82c0,3.4-2.76,6.16-6.16,6.16h-115.82c-3.4,0-6.16-2.76-6.16-6.16v-115.82c0-3.4,2.76-6.16,6.16-6.16Z"/>
    <path class="c8800FF" d="M1091.69,345.09h115.82c3.4,0,6.16,2.76,6.16,6.16v115.82c0,3.4-2.76,6.16-6.16,6.16h-115.82c-3.4,0-6.16-2.76-6.16-6.16v-115.82c0-3.4,2.76-6.16,6.16-6.16Z"/>
    <path class="cFF00FF" d="M203.49,493.31h115.82c3.4,0,6.16,2.76,6.16,6.16v115.82c0,3.4-2.76,6.16-6.16,6.16h-115.83c-3.4,0-6.16-2.76-6.16-6.16v-115.82c0-3.4,2.76-6.16,6.16-6.16h.01Z"/>
    <path class="cFF00FF" d="M351.52,493.31h115.82c3.4,0,6.16,2.76,6.16,6.16v115.82c0,3.4-2.76,6.16-6.16,6.16h-115.83c-3.4,0-6.16-2.76-6.16-6.16v-115.82c0-3.4,2.76-6.16,6.16-6.16h.01Z"/>
    <path class="cFF00FF" d="M795.62,493.31h115.82c3.4,0,6.16,2.76,6.16,6.16v115.82c0,3.4-2.76,6.16-6.16,6.16h-115.82c-3.4,0-6.16-2.76-6.16-6.16v-115.82c0-3.4,2.76-6.16,6.16-6.16Z"/>
    <path class="cFF00FF" d="M943.65,493.31h115.82c3.4,0,6.16,2.76,6.16,6.16v115.82c0,3.4-2.76,6.16-6.16,6.16h-115.82c-3.4,0-6.16-2.76-6.16-6.16v-115.82c0-3.4,2.76-6.16,6.16-6.16Z"/>
    <path id="Button" class="c8800FF" d="M1091.69,493.31h115.82c3.4,0,6.16,2.76,6.16,6.16v115.82c0,3.4-2.76,6.16-6.16,6.16h-115.83c-3.4,0-6.16-2.76-6.16-6.16v-115.82c0-3.4,2.76-6.16,6.16-6.16h.01Z"/>
    <path id="Button-2" class="cFF00FF" d="M203.49,641.52h115.82c3.4,0,6.16,2.76,6.16,6.16v115.82c0,3.4-2.76,6.16-6.16,6.16h-115.82c-3.4,0-6.16-2.76-6.16-6.16v-115.82c0-3.4,2.76-6.16,6.16-6.16h0Z"/>
    <path id="Button-4" class="cFF00FF" d="M795.62,641.52h115.82c3.4,0,6.16,2.76,6.16,6.16v115.82c0,3.4-2.76,6.16-6.16,6.16h-115.82c-3.4,0-6.16-2.76-6.16-6.16v-115.82c0-3.4,2.76-6.16,6.16-6.16Z"/>
    <path id="Button-5" class="cFF00FF" d="M943.65,641.52h115.82c3.4,0,6.16,2.76,6.16,6.16v115.82c0,3.4-2.76,6.16-6.16,6.16h-115.82c-3.4,0-6.16-2.76-6.16-6.16v-115.82c0-3.4,2.76-6.16,6.16-6.16Z"/>
    <path id="Button-6" class="c8800FF" d="M1091.69,641.52h115.82c3.4,0,6.16,2.76,6.16,6.16v115.82c0,3.4-2.76,6.16-6.16,6.16h-115.82c-3.4,0-6.16-2.76-6.16-6.16v-115.82c0-3.4,2.76-6.16,6.16-6.16Z"/>
    <path id="Button-7" class="cFF00FF" d="M203.49,789.73h115.82c3.4,0,6.16,2.76,6.16,6.16v115.82c0,3.4-2.76,6.16-6.16,6.16h-115.82c-3.4,0-6.16-2.76-6.16-6.16v-115.82c0-3.4,2.76-6.16,6.16-6.16h0Z"/>
    <path id="Button-8" class="cFF00FF" d="M351.52,789.73h115.82c3.4,0,6.16,2.76,6.16,6.16v115.82c0,3.4-2.76,6.16-6.16,6.16h-115.82c-3.4,0-6.16-2.76-6.16-6.16v-115.82c0-3.4,2.76-6.16,6.16-6.16Z"/>
    <path id="Button-9" class="cFF00FF" d="M499.56,789.73h115.82c3.4,0,6.16,2.76,6.16,6.16v115.82c0,3.4-2.76,6.16-6.16,6.16h-115.82c-3.4,0-6.16-2.76-6.16-6.16v-115.82c0-3.4,2.76-6.16,6.16-6.16Z"/>
    <path id="Button-10" class="cFF00FF" d="M647.59,789.73h115.82c3.4,0,6.16,2.76,6.16,6.16v115.82c0,3.4-2.76,6.16-6.16,6.16h-115.82c-3.4,0-6.16-2.76-6.16-6.16v-115.82c0-3.4,2.76-6.16,6.16-6.16Z"/>
    <path id="Button-11" class="cFF00FF" d="M795.62,789.73h115.82c3.4,0,6.16,2.76,6.16,6.16v115.82c0,3.4-2.76,6.16-6.16,6.16h-115.82c-3.4,0-6.16-2.76-6.16-6.16v-115.82c0-3.4,2.76-6.16,6.16-6.16Z"/>
    <path id="Button-12" class="cFF00FF" d="M943.65,789.73h115.82c3.4,0,6.16,2.76,6.16,6.16v115.82c0,3.4-2.76,6.16-6.16,6.16h-115.82c-3.4,0-6.16-2.76-6.16-6.16v-115.82c0-3.4,2.76-6.16,6.16-6.16Z"/>
    <path id="Button-13" class="c8800FF" d="M1091.69,789.73h115.82c3.4,0,6.16,2.76,6.16,6.16v115.82c0,3.4-2.76,6.16-6.16,6.16h-115.82c-3.4,0-6.16-2.76-6.16-6.16v-115.82c0-3.4,2.76-6.16,6.16-6.16Z"/>
    <path id="Button-15" class="cFF00FF" d="M351.52,937.94h115.82c3.4,0,6.16,2.76,6.16,6.16v115.82c0,3.4-2.76,6.16-6.16,6.16h-115.82c-3.4,0-6.16-2.76-6.16-6.16v-115.82c0-3.4,2.76-6.16,6.16-6.16Z"/>
    <path id="Button-16" class="cFF00FF" d="M499.56,937.94h115.82c3.4,0,6.16,2.76,6.16,6.16v115.82c0,3.4-2.76,6.16-6.16,6.16h-115.82c-3.4,0-6.16-2.76-6.16-6.16v-115.82c0-3.4,2.76-6.16,6.16-6.16Z"/>
    <path id="Button-17" class="cFF00FF" d="M647.59,937.94h115.82c3.4,0,6.16,2.76,6.16,6.16v115.82c0,3.4-2.76,6.16-6.16,6.16h-115.82c-3.4,0-6.16-2.76-6.16-6.16v-115.82c0-3.4,2.76-6.16,6.16-6.16Z"/>
    <path id="Button-18" class="cFF00FF" d="M795.62,937.94h115.82c3.4,0,6.16,2.76,6.16,6.16v115.82c0,3.4-2.76,6.16-6.16,6.16h-115.82c-3.4,0-6.16-2.76-6.16-6.16v-115.82c0-3.4,2.76-6.16,6.16-6.16Z"/>
    <path id="Button-19" class="cFF00FF" d="M943.65,937.94h115.82c3.4,0,6.16,2.76,6.16,6.16v115.82c0,3.4-2.76,6.16-6.16,6.16h-115.82c-3.4,0-6.16-2.76-6.16-6.16v-115.82c0-3.4,2.76-6.16,6.16-6.16Z"/>
    <path id="Button-20" class="c8800FF" d="M1091.69,937.94h115.82c3.4,0,6.16,2.76,6.16,6.16v115.82c0,3.4-2.76,6.16-6.16,6.16h-115.82c-3.4,0-6.16-2.76-6.16-6.16v-115.82c0-3.4,2.76-6.16,6.16-6.16Z"/>
    <path id="Button-21" class="cFF00FF" d="M203.49,1086.15h115.82c3.4,0,6.16,2.76,6.16,6.16v115.82c0,3.4-2.76,6.16-6.16,6.16h-115.82c-3.4,0-6.16-2.76-6.16-6.16v-115.82c0-3.4,2.76-6.16,6.16-6.16h0Z"/>
    <path id="Button-22" class="cFF00FF" d="M351.52,1086.15h115.82c3.4,0,6.16,2.76,6.16,6.16v115.82c0,3.4-2.76,6.16-6.16,6.16h-115.82c-3.4,0-6.16-2.76-6.16-6.16v-115.82c0-3.4,2.76-6.16,6.16-6.16Z"/>
    <path id="Button-23" class="cFF00FF" d="M499.56,1086.15h115.82c3.4,0,6.16,2.76,6.16,6.16v115.82c0,3.4-2.76,6.16-6.16,6.16h-115.82c-3.4,0-6.16-2.76-6.16-6.16v-115.82c0-3.4,2.76-6.16,6.16-6.16Z"/>
    <path id="Button-24" class="cFF00FF" d="M647.59,1086.15h115.82c3.4,0,6.16,2.76,6.16,6.16v115.82c0,3.4-2.76,6.16-6.16,6.16h-115.82c-3.4,0-6.16-2.76-6.16-6.16v-115.82c0-3.4,2.76-6.16,6.16-6.16Z"/>
    <path id="Button-25" class="cFF00FF" d="M795.62,1086.15h115.82c3.4,0,6.16,2.76,6.16,6.16v115.82c0,3.4-2.76,6.16-6.16,6.16h-115.82c-3.4,0-6.16-2.76-6.16-6.16v-115.82c0-3.4,2.76-6.16,6.16-6.16Z"/>
    <path id="Button-26" class="cFF00FF" d="M943.65,1086.15h115.82c3.4,0,6.16,2.76,6.16,6.16v115.82c0,3.4-2.76,6.16-6.16,6.16h-115.82c-3.4,0-6.16-2.76-6.16-6.16v-115.82c0-3.4,2.76-6.16,6.16-6.16Z"/>
    <path id="Button-27" class="c8800FF" d="M1091.69,1086.15h115.82c3.4,0,6.16,2.76,6.16,6.16v115.82c0,3.4-2.76,6.16-6.16,6.16h-115.82c-3.4,0-6.16-2.76-6.16-6.16v-115.82c0-3.4,2.76-6.16,6.16-6.16Z"/>
    <path id="Button3" class="cFF00FF" d="M351.53,48.67h115.82c3.4,0,6.16,2.76,6.16,6.16v115.82c0,3.4-2.76,6.16-6.16,6.16h-115.82c-3.4,0-6.16-2.76-6.16-6.16V54.83c0-3.4,2.76-6.16,6.16-6.16Z"/>
    <path id="Button-29" class="cFF00FF" d="M647.6,48.67h115.82c3.4,0,6.16,2.76,6.16,6.16v115.82c0,3.4-2.76,6.16-6.16,6.16h-115.83c-3.4,0-6.16-2.76-6.16-6.16V54.83c0-3.4,2.76-6.16,6.16-6.16h.01Z"/>
    <path id="Button-30" class="cFF00FF" d="M795.64,48.67h115.82c3.4,0,6.16,2.76,6.16,6.16v115.82c0,3.4-2.76,6.16-6.16,6.16h-115.82c-3.4,0-6.16-2.76-6.16-6.16V54.83c0-3.4,2.76-6.16,6.16-6.16Z"/>
    <path id="Button-31" class="cFF00FF" d="M943.67,48.67h115.82c3.4,0,6.16,2.76,6.16,6.16v115.82c0,3.4-2.76,6.16-6.16,6.16h-115.82c-3.4,0-6.16-2.76-6.16-6.16V54.83c0-3.4,2.76-6.16,6.16-6.16Z"/>
    <path id="Button-32" class="c8800FF" d="M1091.69,48.67h115.82c3.4,0,6.16,2.76,6.16,6.16v115.82c0,3.4-2.76,6.16-6.16,6.16h-115.82c-3.4,0-6.16-2.76-6.16-6.16V54.83c0-3.4,2.76-6.16,6.16-6.16Z"/>
    <path id="Button-33" class="c8800FF" d="M55.46,1086.15h115.82c3.4,0,6.16,2.76,6.16,6.16v115.82c0,3.4-2.76,6.16-6.16,6.16H55.46c-3.4,0-6.16-2.76-6.16-6.16v-115.82c0-3.4,2.76-6.16,6.16-6.16Z"/>
    <path id="Button-34" class="c8800FF" d="M55.46,937.94h115.82c3.4,0,6.16,2.76,6.16,6.16v115.82c0,3.4-2.76,6.16-6.16,6.16H55.46c-3.4,0-6.16-2.76-6.16-6.16v-115.82c0-3.4,2.76-6.16,6.16-6.16Z"/>
    <path id="Button-35" class="c8800FF" d="M55.46,789.73h115.82c3.4,0,6.16,2.76,6.16,6.16v115.82c0,3.4-2.76,6.16-6.16,6.16H55.46c-3.4,0-6.16-2.76-6.16-6.16v-115.82c0-3.4,2.76-6.16,6.16-6.16Z"/>
    <path id="Button-36" class="c8800FF" d="M55.46,641.52h115.82c3.4,0,6.16,2.76,6.16,6.16v115.82c0,3.4-2.76,6.16-6.16,6.16H55.46c-3.4,0-6.16-2.76-6.16-6.16v-115.82c0-3.4,2.76-6.16,6.16-6.16Z"/>
    <path id="Button-37" class="c8800FF" d="M55.46,493.31h115.82c3.4,0,6.16,2.76,6.16,6.16v115.82c0,3.4-2.76,6.16-6.16,6.16H55.46c-3.4,0-6.16-2.76-6.16-6.16v-115.82c0-3.4,2.76-6.16,6.16-6.16Z"/>
    <path id="Button-38" class="c8800FF" d="M55.46,345.09h115.82c3.4,0,6.16,2.76,6.16,6.16v115.82c0,3.4-2.76,6.16-6.16,6.16H55.46c-3.4,0-6.16-2.76-6.16-6.16v-115.82c0-3.4,2.76-6.16,6.16-6.16Z"/>
    <path id="Button-39" class="c8800FF" d="M55.46,196.88h115.82c3.4,0,6.16,2.76,6.16,6.16v115.82c0,3.4-2.76,6.16-6.16,6.16H55.45c-3.4,0-6.16-2.76-6.16-6.16v-115.82c0-3.4,2.76-6.16,6.16-6.16h.01Z"/>
    <path id="Button-2-2" data-name="Button-2" class="cFF00FF" d="M351.51,641.52h115.82c3.4,0,6.16,2.76,6.16,6.16v115.82c0,3.4-2.76,6.16-6.16,6.16h-115.82c-3.4,0-6.16-2.76-6.16-6.16v-115.82c0-3.4,2.76-6.16,6.16-6.16h0Z"/>
    <path id="Button3-2" data-name="Button3" class="cFF00FF" d="M499.55,48.67h115.82c3.4,0,6.16,2.76,6.16,6.16v115.82c0,3.4-2.76,6.16-6.16,6.16h-115.82c-3.4,0-6.16-2.76-6.16-6.16V54.83c0-3.4,2.76-6.16,6.16-6.16Z"/>
    <path id="Button-34-2" data-name="Button-34" class="cFF00FF" d="M203.48,937.94h115.82c3.4,0,6.16,2.76,6.16,6.16v115.82c0,3.4-2.76,6.16-6.16,6.16h-115.82c-3.4,0-6.16-2.76-6.16-6.16v-115.82c0-3.4,2.76-6.16,6.16-6.16Z"/>
  </g>
</svg>